<svg width="174" height="50" viewBox="0 0 174 50" fill="none" xmlns="http://www.w3.org/2000/svg">
<g clip-path="url(#clip0_2286_1698)">
<path d="M87.787 16.7828H81.332L82.0163 13.2842H98.9799L98.2827 16.7828H91.8278L88.071 36.5607H84.0302L87.787 16.7828Z" fill="#003082"/>
<path d="M106.158 36.948C100.116 36.948 97.005 32.5328 97.005 27.3431C96.9383 23.1872 98.4997 19.17 101.356 16.1502C103.565 14.0558 106.497 12.895 109.54 12.9098C115.724 12.9098 118.655 17.2604 118.655 22.5406C118.727 26.6138 117.235 30.5596 114.485 33.5656C113.39 34.6378 112.095 35.4829 110.672 36.0524C109.25 36.6218 107.729 36.9042 106.197 36.8835L106.158 36.948ZM106.752 33.5656C107.599 33.555 108.435 33.3747 109.211 33.0354C109.987 32.6962 110.687 32.2048 111.27 31.5904C113.271 29.5894 114.408 25.6131 114.408 22.6826C114.408 19.752 113.336 16.2922 109.05 16.2922C108.187 16.3007 107.334 16.4822 106.543 16.8259C105.751 17.1696 105.037 17.6685 104.441 18.2932C102.375 20.7663 101.246 23.8881 101.252 27.1107C101.252 30.6351 102.802 33.5656 106.713 33.5656H106.752Z" fill="#003082"/>
<path d="M133.785 26.2071H125.432L124.141 33.1526H133.539L132.881 36.5737H119.416L123.831 13.3359H136.741L136.083 16.7571H127.226L126.052 22.8634H134.443L133.785 26.2071Z" fill="#003082"/>
<path d="M140.485 13.2842H153.292L152.634 16.7053H143.868L142.59 23.2377H150.736L150.078 26.6201H142.009L140.15 36.5349H136.07L140.485 13.2842Z" fill="#003082"/>
<path d="M156.894 13.2842H160.896L157.165 33.0363H166.279L165.621 36.5607H152.466L156.894 13.2842Z" fill="#003082"/>
<path d="M172.992 35.6571C172.748 35.9504 172.445 36.1896 172.102 36.3594C171.76 36.5291 171.386 36.6257 171.005 36.6429C170.623 36.6602 170.242 36.5977 169.886 36.4595C169.53 36.3213 169.206 36.1105 168.936 35.8403C168.666 35.5702 168.455 35.2468 168.317 34.8906C168.179 34.5345 168.116 34.1534 168.134 33.7718C168.151 33.3902 168.247 33.0163 168.417 32.6741C168.587 32.3319 168.826 32.0288 169.12 31.7841C169.364 31.4907 169.667 31.2515 170.01 31.0818C170.352 30.912 170.726 30.8155 171.107 30.7982C171.489 30.781 171.87 30.8434 172.226 30.9816C172.582 31.1198 172.906 31.3307 173.176 31.6008C173.446 31.8709 173.657 32.1944 173.795 32.5505C173.933 32.9067 173.996 33.2877 173.978 33.6693C173.961 34.051 173.865 34.4248 173.695 34.767C173.525 35.1093 173.286 35.4124 172.992 35.6571ZM169.378 32.0294C168.993 32.4168 168.754 32.9256 168.702 33.4692C168.65 34.0129 168.787 34.5578 169.092 35.0113C169.396 35.4648 169.848 35.7988 170.371 35.9566C170.894 36.1143 171.455 36.086 171.96 35.8765C172.464 35.667 172.88 35.2892 173.138 34.8074C173.395 34.3257 173.477 33.7696 173.371 33.234C173.264 32.6983 172.975 32.2161 172.553 31.8694C172.131 31.5226 171.602 31.3328 171.056 31.3322C170.739 31.3239 170.424 31.3816 170.131 31.5016C169.837 31.6216 169.572 31.8013 169.352 32.0294H169.378ZM170.991 32.1843C171.271 32.169 171.551 32.204 171.818 32.2876C171.967 32.3479 172.092 32.4545 172.176 32.5916C172.26 32.7288 172.297 32.8892 172.282 33.0493C172.29 33.1657 172.267 33.282 172.214 33.3864C172.162 33.4907 172.083 33.5793 171.986 33.6431C171.85 33.7196 171.701 33.7679 171.547 33.7851C171.649 33.7959 171.747 33.8279 171.836 33.879C171.925 33.9301 172.002 33.9993 172.063 34.082C172.165 34.2162 172.224 34.3784 172.231 34.5468V34.7663C172.231 34.8308 172.231 34.9083 172.231 34.9857C172.223 35.0371 172.223 35.0893 172.231 35.1407H171.702V34.8566C171.721 34.7256 171.705 34.5917 171.655 34.469C171.605 34.3463 171.523 34.2394 171.417 34.1595C171.229 34.0831 171.026 34.0521 170.824 34.0691H170.411V35.2568H169.881V32.1843H170.991ZM171.572 32.662C171.37 32.572 171.148 32.5321 170.927 32.5458H170.411V33.6431H170.888C171.059 33.6517 171.229 33.6299 171.392 33.5786C171.476 33.5404 171.549 33.4812 171.604 33.4066C171.659 33.3321 171.694 33.2447 171.706 33.1528C171.718 33.0608 171.706 32.9674 171.671 32.8815C171.636 32.7956 171.58 32.72 171.508 32.662H171.572Z" fill="#003082"/>
</g>
<g clip-path="url(#clip1_2286_1698)">
<path d="M61.619 35.5668C55.4305 40.4296 48.1729 43.7486 40.4468 45.2492C28.0533 47.9603 16.4344 46.4111 10.2377 40.9889C8.89689 39.8992 7.79299 38.5469 6.99377 37.0151C6.19456 35.4833 5.7169 33.8042 5.59012 32.0811C4.81553 23.0442 11.6578 13.62 23.7931 7.03593L23.9222 6.90683L23.7931 6.51953H23.664C9.33399 12.4581 -0.735722 23.1733 0.0388713 33.3721C0.170205 35.4137 0.719192 37.4067 1.65185 39.2276C2.58451 41.0485 3.88098 42.6586 5.46102 43.9582C12.0451 49.7677 23.7931 51.4459 36.8321 48.7349C46.1883 46.9437 54.8351 42.5083 61.7481 35.9541L61.8772 35.825L61.619 35.5668Z" fill="#003082"/>
<path d="M71.043 10.9088C68.5902 5.48667 63.168 1.7428 55.6803 0.451811C43.8032 -1.61377 29.4732 3.55018 22.2437 11.8125V11.9416L22.5018 12.1998L22.6309 12.0707C28.0759 7.74997 34.5892 4.98407 41.4794 4.06658C51.9364 2.51739 60.7151 5.09937 64.9754 11.167C69.1066 16.9765 67.9447 28.2081 62.5225 34.7921L62.3934 34.9212L62.6516 35.1794L62.7807 35.0503C71.043 27.1753 74.916 19.8166 71.043 10.9088Z" fill="#003082"/>
<path d="M27.0206 26.7879H19.1456L18.2419 31.4355H27.0206L26.3751 35.1794H13.207L16.9509 15.4272H29.6026L28.828 19.1711H20.5657L19.7911 23.1732H27.6661L27.0206 26.7879Z" fill="#003082"/>
<path d="M35.0247 19.1711H30.248L31.0226 15.4272H47.8055C46.7449 15.6808 45.7943 16.2693 45.0944 17.1055C44.537 17.6835 44.137 18.3946 43.9325 19.1711H39.5432L36.5739 35.1794H32.1845L35.0247 19.1711Z" fill="#003082"/>
<path d="M44.0614 30.2736C45.6721 31.1994 47.4966 31.6889 49.3544 31.6937C50.9036 31.6937 52.5819 31.0482 52.5819 29.499C52.5819 28.4662 51.6782 27.6916 49.7417 26.917C47.418 25.8842 45.0942 24.3351 45.0942 21.4949C45.0942 17.3637 48.8381 15.0399 53.2274 15.0399C55.0438 15.0191 56.8452 15.3705 58.5205 16.0727L56.9713 19.6875C55.7047 19.0089 54.2743 18.696 52.8401 18.7838C50.7745 18.7838 49.7417 19.6875 49.7417 20.7203C49.7417 22.0113 51.2909 22.6568 52.9692 23.4314C55.6803 24.5933 57.3586 26.1424 57.3586 28.7244C57.3586 33.2429 53.3565 35.4376 48.8381 35.4376C46.6054 35.5577 44.3917 34.9704 42.5122 33.7593L44.0614 30.2736Z" fill="#003082"/>
<path d="M70.0104 39.698C69.5611 40.1689 68.9619 40.4686 68.3157 40.5458C67.6694 40.6229 67.0165 40.4727 66.4689 40.1208C65.9214 39.7689 65.5135 39.2374 65.3153 38.6175C65.117 37.9976 65.1408 37.328 65.3825 36.7237C65.6242 36.1194 66.0688 35.6181 66.6399 35.3059C67.211 34.9938 67.8729 34.8902 68.5121 35.013C69.1512 35.1357 69.7277 35.4772 70.1425 35.9788C70.5572 36.4804 70.7844 37.1107 70.785 37.7615C70.7977 38.1204 70.7353 38.478 70.6019 38.8114C70.4686 39.1449 70.2671 39.4468 70.0104 39.698ZM66.3957 36.2123C66.1729 36.4286 65.9998 36.6907 65.8884 36.9805C65.7769 37.2703 65.7298 37.5808 65.7502 37.8906C65.7692 38.507 65.9967 39.0987 66.3957 39.5689C66.6119 39.7916 66.874 39.9647 67.1638 40.0762C67.4536 40.1876 67.7641 40.2348 68.0739 40.2144C68.6903 40.1954 69.282 39.9678 69.7522 39.5689C69.975 39.3526 70.1481 39.0905 70.2595 38.8007C70.371 38.511 70.4181 38.2004 70.3977 37.8906C70.3787 37.2742 70.1512 36.6826 69.7522 36.2123C69.5359 35.9896 69.2738 35.8165 68.9841 35.705C68.6943 35.5936 68.3837 35.5464 68.0739 35.5668C67.7621 35.5159 67.4423 35.5489 67.1474 35.6623C66.8525 35.7757 66.593 35.9656 66.3957 36.2123ZM68.0739 36.3414C68.4612 36.3414 68.7194 36.3414 68.8485 36.4705C68.9986 36.5382 69.1266 36.6468 69.2179 36.7837C69.3092 36.9207 69.3601 37.0806 69.3649 37.2451C69.3605 37.4846 69.2687 37.7142 69.1067 37.8906C69.0557 37.9394 68.9945 37.9763 68.9276 37.9986C68.8606 38.0209 68.7895 38.0281 68.7194 38.0197C68.8193 38.0216 68.9175 38.0458 69.0068 38.0905C69.0961 38.1351 69.1744 38.1992 69.2358 38.2779C69.3649 38.407 69.3649 38.5361 69.3649 38.7943V39.4398H68.8485V39.0525C68.8598 38.9321 68.8423 38.8108 68.7974 38.6986C68.7525 38.5863 68.6815 38.4864 68.5903 38.407C68.4612 38.2779 68.3321 38.2779 67.9448 38.2779H67.5575V39.4398H67.0411V36.4705L68.0739 36.3414ZM68.5903 36.7287C68.3969 36.6116 68.1685 36.566 67.9448 36.5996H67.5575V37.7615H68.0739C68.3321 37.7615 68.4612 37.7615 68.5903 37.6324C68.7194 37.5033 68.8485 37.3742 68.8485 37.116C68.8485 36.8578 68.7194 36.8578 68.5903 36.7287Z" fill="#003082"/>
</g>
<defs>
<clipPath id="clip0_2286_1698">
<rect width="92.4477" height="24.0382" fill="white" transform="translate(81.332 12.9099)"/>
</clipPath>
<clipPath id="clip1_2286_1698">
<rect width="72.5536" height="50" fill="white"/>
</clipPath>
</defs>
</svg>
